<svg xmlns="http://www.w3.org/2000/svg" width="24" height="24" fill="none" viewBox="0 0 24 24">
    <path fill="#0A7EC2" d="M3.142 9.92C1.5 9.92.166 11.251.166 12.894c0 1.643 1.33 2.976 2.974 2.977 1.643 0 2.976-1.331 2.976-2.975 0-1.643-1.33-2.975-2.974-2.976zm0 4.463c-.822 0-1.488-.666-1.488-1.488s.666-1.488 1.488-1.488 1.488.666 1.488 1.488v.001c0 .822-.666 1.487-1.488 1.487zM8.371 13.894c-.001-.144.113-.261.257-.263.071 0 .14.028.19.08.742.758 1.972 2.056 1.98 2.064.027.035.065.059.107.069.042.01.084.014.127.013h1.342c.144-.004.258-.123.255-.267-.002-.056-.02-.11-.054-.153l-2.222-2.28-.116-.121c-.255-.308-.225-.421.067-.727l1.767-1.971c.091-.114.073-.28-.04-.372-.047-.037-.106-.058-.166-.058h-1.22c-.039 0-.078.006-.116.018-.045.013-.086.038-.118.073L8.83 11.711c-.101.106-.27.11-.375.01-.052-.05-.082-.118-.083-.19V8.149c.002-.134-.106-.243-.24-.245H7.118c-.13-.007-.243.094-.25.225v7.499c-.002.125.097.228.222.23h1.023c.136.002.25-.103.258-.238v-1.725zM16.486 15.588l-.107-.996c-.014-.131-.132-.226-.263-.212l-.014.002c-.812.129-1.574-.426-1.702-1.238-.008-.05-.013-.1-.016-.151V11.698c-.004-.155.12-.284.275-.288h1.343c.137-.004.244-.12.24-.256v-.943c.011-.139-.09-.261-.23-.275h-1.34c-.15.005-.277-.113-.281-.264V8.155c-.002-.135-.113-.243-.247-.241h-1.001c-.127-.007-.236.089-.244.216v4.865c.045 1.643 1.413 2.94 3.056 2.895.106-.003.212-.012.318-.026.134-.018.229-.14.214-.274M23.651 14.338c-.843 0-.966-.3-.966-1.433V10.177c0-.142-.114-.258-.256-.258h-.994c-.142.002-.256.116-.259.258v.128c-1.43-.81-3.246-.309-4.057 1.121-.811 1.43-.31 3.246 1.12 4.057 1.09.619 2.45.488 3.403-.327.28.43.73.71 1.43.715.12 0 .752.021.752-.276v-1.058c.004-.101-.071-.188-.172-.198zm-3.945.046c-.822 0-1.488-.667-1.488-1.489 0-.822.666-1.488 1.488-1.488s1.489.666 1.489 1.488-.667 1.489-1.489 1.489z"/>
</svg>
