<svg xmlns="http://www.w3.org/2000/svg" width="24" height="24" fill="none" viewBox="0 0 24 24">
    <path fill="#00AEEF" d="M20.022 24H3.978C1.781 24 0 22.219 0 20.022V3.978C0 1.781 1.781 0 3.978 0h16.044C22.219 0 24 1.781 24 3.978v16.044C24 22.219 22.219 24 20.022 24z"/>
    <path fill="#fff" d="M12.283 10.105c-1.249 0-2.335.702-2.883 1.733-.547-1.03-1.633-1.733-2.883-1.733-.733 0-1.411.243-1.958.653v-2.75c-.007-.355-.296-.639-.653-.639-.356 0-.643.284-.651.64v5.413c.03 1.777 1.478 3.21 3.262 3.21 1.25 0 2.336-.704 2.883-1.734.548 1.03 1.634 1.733 2.883 1.733 1.801 0 3.263-1.46 3.263-3.264 0-1.802-1.462-3.262-3.263-3.262zm-5.766 5.22c-1.08 0-1.958-.876-1.958-1.957 0-1.08.877-1.957 1.958-1.957s1.957.876 1.957 1.956c0 1.082-.876 1.958-1.957 1.958zm5.766 0c-1.082 0-1.958-.876-1.958-1.958 0-1.08.876-1.956 1.958-1.956 1.08 0 1.957.876 1.957 1.956 0 1.082-.876 1.958-1.957 1.958z"/>
    <path fill="#fff" d="M20.609 15.539l-1.774-2.176 1.776-2.18c.224-.287.16-.689-.15-.902-.31-.215-.746-.16-.986.119l-1.527 1.872L16.42 10.4c-.238-.279-.676-.334-.985-.119-.31.213-.374.615-.148.902h-.001l1.773 2.18-1.773 2.176c-.225.288-.16.688.15.903.308.214.746.16.984-.12l1.527-1.87 1.525 1.87c.24.28.676.334.986.12.31-.215.375-.615.15-.903z"/>
</svg>
