<svg xmlns="http://www.w3.org/2000/svg" width="24" height="24" fill="none" viewBox="0 0 24 24">
    <path fill="#949494" d="M3.34 17c-.423-.731-.751-1.513-.978-2.326.493-.251.908-.633 1.197-1.105.29-.472.443-1.014.443-1.568 0-.553-.153-1.096-.442-1.568-.289-.472-.703-.855-1.196-1.106C2.816 7.692 3.677 6.2 4.865 4.99c.464.302 1.003.47 1.556.484.553.014 1.1-.124 1.58-.401.479-.277.872-.681 1.136-1.168.264-.486.388-1.036.36-1.59 1.641-.423 3.364-.423 5.006.003-.029.553.095 1.103.36 1.59.264.486.657.89 1.137 1.166.48.277 1.026.415 1.58.4.553-.015 1.091-.182 1.555-.484.58.59 1.093 1.26 1.525 2.01.433.749.757 1.53.978 2.326-.493.25-.908.633-1.197 1.105-.29.472-.443 1.014-.443 1.568 0 .553.153 1.096.442 1.568.289.472.703.855 1.196 1.106-.452 1.635-1.313 3.127-2.5 4.337-.465-.302-1.004-.47-1.557-.484-.553-.014-1.1.124-1.58.401-.479.277-.872.68-1.136 1.168-.264.486-.388 1.036-.359 1.589-1.642.424-3.365.424-5.007-.002.03-.553-.095-1.103-.36-1.59-.264-.486-.657-.89-1.137-1.166-.48-.277-1.026-.415-1.58-.4-.553.014-1.091.182-1.555.484-.591-.603-1.103-1.279-1.525-2.01zm5.66.196c1.066.615 1.867 1.601 2.25 2.77.5.047 1 .048 1.5 0 .383-1.168 1.184-2.155 2.25-2.77 1.065-.615 2.32-.817 3.525-.564.29-.408.54-.843.748-1.298C18.453 14.417 18 13.23 18 12c0-1.26.47-2.437 1.273-3.334-.21-.455-.46-.89-.75-1.298-1.204.252-2.458.051-3.523-.564-1.066-.615-1.867-1.601-2.25-2.77-.499-.047-1-.048-1.499-.001-.383 1.17-1.185 2.155-2.25 2.77-1.066.616-2.321.817-3.526.565-.29.408-.54.843-.748 1.298C5.547 9.582 6.001 10.77 6 12c0 1.26-.47 2.437-1.273 3.334.21.455.46.89.75 1.298 1.204-.252 2.458-.052 3.523.564zM12 15c-.796 0-1.559-.316-2.121-.879C9.316 13.56 9 12.796 9 12s.316-1.559.879-2.121C10.44 9.316 11.204 9 12 9s1.559.316 2.121.879c.563.562.88 1.325.88 2.12 0 .797-.317 1.56-.88 2.122-.562.563-1.325.879-2.12.879zm0-2c.265 0 .52-.105.707-.293.188-.188.293-.442.293-.707 0-.265-.105-.52-.293-.707C12.52 11.105 12.265 11 12 11c-.265 0-.52.105-.707.293-.188.187-.293.442-.293.707 0 .265.105.52.293.707.188.188.442.293.707.293z"/>
</svg>
