<svg xmlns="http://www.w3.org/2000/svg" width="24" height="24" fill="none" viewBox="0 0 24 24">
    <path fill="#949494" d="M12 22C6.477 22 2 17.523 2 12c0-4.478 2.943-8.268 7-9.542v2.124c-1.72.698-3.142 1.972-4.026 3.603-.884 1.632-1.173 3.52-.819 5.34.355 1.822 1.33 3.463 2.762 4.644C8.347 19.35 10.145 19.997 12 20c1.594 0 3.151-.476 4.473-1.367 1.321-.89 2.347-2.156 2.945-3.633h2.124c-1.274 4.057-5.064 7-9.542 7zm9.95-9H11V2.05c.329-.033.663-.05 1-.05 5.523 0 10 4.477 10 10 0 .337-.017.671-.05 1zM13 4.062V11h6.938c-.223-1.762-1.025-3.4-2.281-4.657C16.4 5.087 14.762 4.285 13 4.062z"/>
</svg>
