<svg xmlns="http://www.w3.org/2000/svg" width="311" height="265" fill="none" viewBox="0 0 311 265">
    <path fill="#C7D4E2" d="M156.723 253.972c85.157 0 154.19-3.538 154.19-7.902 0-4.364-69.033-7.901-154.19-7.901s-154.19 3.537-154.19 7.901 69.033 7.902 154.19 7.902z" opacity=".65"/>
    <path fill="#1D4CD7" d="M278.798 235.55V63.381c0-6.83-5.538-12.368-12.369-12.368H36.021c-6.83 0-12.369 5.537-12.369 12.368V235.55c0 6.831 5.538 12.369 12.37 12.369h230.407c6.831 0 12.369-5.538 12.369-12.369z"/>
    <path fill="#F6F6F6" d="M267.329 230.591V68.339c0-4.68-3.795-8.475-8.476-8.475H48.815c-4.68 0-8.475 3.794-8.475 8.475v162.252c0 4.681 3.794 8.475 8.475 8.475h210.038c4.681 0 8.476-3.794 8.476-8.475z"/>
    <path fill="#6F95D4" d="M31.572 157.018c-.858 0-1.697-.255-2.411-.732s-1.27-1.154-1.599-1.948c-.328-.793-.414-1.665-.247-2.507.168-.842.581-1.616 1.188-2.223.607-.607 1.38-1.02 2.222-1.188.842-.167 1.715-.081 2.508.247.793.329 1.471.885 1.948 1.599.477.714.732 1.553.732 2.411 0 .57-.113 1.135-.33 1.661-.219.527-.539 1.006-.942 1.409-.403.403-.881.722-1.408.94-.526.219-1.09.331-1.66.331z"/>
    <path fill="#1D4CD7" d="M179.072 142.455h-53.328v47.472h53.328v-47.472z"/>
    <path stroke="#3B5CAD" stroke-miterlimit="10" stroke-width="4" d="M131.531 132.016c.017-5.531 2.222-10.832 6.133-14.743 3.912-3.911 9.212-6.116 14.744-6.133 5.532.017 10.832 2.222 14.744 6.133 3.911 3.911 6.116 9.212 6.133 14.743v10.438"/>
    <path fill="#F6F3FD" d="M143.583 142.455h-12.888v47.472h12.888v-47.472z" opacity=".4"/>
    <path fill="#003A70" d="M152.408 177.856c3.574 0 6.471-2.897 6.471-6.472 0-3.574-2.897-6.471-6.471-6.471-3.574 0-6.472 2.897-6.472 6.471 0 3.575 2.898 6.472 6.472 6.472z"/>
    <path fill="#003A70" d="M152.408 165.584c2.485 0 4.499-2.015 4.499-4.5s-2.014-4.499-4.499-4.499-4.5 2.014-4.5 4.499 2.015 4.5 4.5 4.5z"/>
    <path stroke="#407CCA" stroke-miterlimit="10" stroke-width=".5" d="M182.914 21.715v69.488"/>
    <path stroke="#407CCA" stroke-miterlimit="10" stroke-width=".482" d="M127.367 20.328v64.545"/>
    <path fill="#1D4CD7" d="M141.432 94.896h43.625c.736-.002 1.441-.295 1.961-.815s.814-1.225.816-1.96c-.002-.736-.295-1.441-.815-1.962-.521-.52-1.226-.813-1.962-.815h-43.625c-.736.002-1.441.295-1.962.816-.52.52-.813 1.225-.815 1.96.002.736.296 1.441.816 1.961s1.225.813 1.961.815z"/>
    <path fill="#1D4CD7" d="M185.058 94.896h-4.287v4.692h4.287v-4.692zM174.872 98.65h3.217v-3.754h-3.217v3.753zM168.572 98.65h3.352v-3.754h-3.352v3.753z"/>
    <path fill="#fff" d="M148.294 91.203h36.763v-.662h-36.763v.662z"/>
    <path fill="#C43146" d="M180.77 99.588h4.287v-.939h-4.287v.939zM174.872 98.65h3.217v-.775h-3.217v.774zM168.572 98.65h3.352v-.775h-3.352v.774z"/>
    <path fill="#1D4CD7" d="M117.863 91.203c0 2.824.837 5.584 2.406 7.932 1.569 2.348 3.799 4.178 6.408 5.259 2.609 1.08 5.479 1.363 8.249.812 2.769-.551 5.314-1.911 7.31-3.907 1.997-1.997 3.357-4.541 3.908-7.31.551-2.77.268-5.641-.813-8.25-1.08-2.609-2.91-4.839-5.258-6.408-2.348-1.568-5.109-2.406-7.933-2.406-3.786 0-7.418 1.505-10.095 4.182-2.678 2.678-4.182 6.31-4.182 10.096z"/>
    <path fill="#fff" d="M119.919 91.203c0 2.417.717 4.78 2.06 6.79 1.342 2.009 3.251 3.576 5.484 4.501 2.233.925 4.69 1.167 7.061.696 2.371-.472 4.549-1.636 6.258-3.345 1.709-1.709 2.873-3.886 3.345-6.257.471-2.37.229-4.828-.696-7.061-.925-2.233-2.491-4.142-4.501-5.485-2.01-1.343-4.372-2.06-6.79-2.06-3.241 0-6.349 1.288-8.641 3.58-2.292 2.291-3.579 5.4-3.58 8.64z" opacity=".2"/>
    <path fill="#fff" d="M125.087 91.204c0 .638.189 1.262.544 1.792.354.531.858.945 1.448 1.189.589.244 1.238.308 1.864.183.626-.124 1.201-.431 1.652-.883.452-.451.759-1.026.884-1.652.124-.626.06-1.275-.184-1.864-.244-.59-.658-1.094-1.189-1.449-.53-.354-1.154-.543-1.792-.543-.856 0-1.677.34-2.282.945s-.945 1.426-.945 2.282z"/>
    <path fill="#6F95D4" d="M117.533 16.63c3.424-3.59 11.038-3.742 14.934-.672 3.782-8.674 15.647-12.643 23.886-7.992 1.587-4.383 8.459-9.712 18.392-7.412 6.694 1.549 12.688 8.013 10.937 14.657 4.627-.67 9.301 2.51 11.093 6.827 1.792 4.318 1 9.42-1.327 13.473h-75.979s-11.251-9.122-1.936-18.881z"/>
    <path fill="#407CCA" d="M77.102 127.115H47.279v1.01h29.823v-1.01zM77.102 131.094H47.279v1.01h29.823v-1.01zM77.102 134.913H47.279v1.009h29.823v-1.009zM62.984 138.704H47.279v1.01h15.705v-1.01z"/>
    <path fill="#3B5CAD" d="M105.488 196.363H0v63.842h105.488v-63.842zM0 196.363l52.744-31.905 52.744 31.902L0 196.363z"/>
    <path fill="#fff" d="M89.58 173.086H17.65v81.74h71.93v-81.74z"/>
    <path fill="#949494" d="M84.543 185.236H22.686v2.175h61.857v-2.175zM84.543 190.523H22.686v2.175h61.857v-2.175zM84.543 196.096H22.686v2.175h61.857v-2.175zM50.705 202.051H22.686v2.175h28.019v-2.175zM84.543 210.952H22.686v2.175h61.857v-2.175zM84.543 216.239H22.686v2.175h61.857v-2.175zM84.543 221.812H22.686v2.175h61.857v-2.175z"/>
    <path fill="#407CCA" d="M50.705 227.767H22.686v2.174h28.019v-2.174z"/>
    <path fill="#1D4CD7" d="M0 260.205l52.744-31.921 52.744 31.921H0z"/>
    <path fill="#F6F6F6" d="M0 260.205l52.744-31.921 52.744 31.921H0z" opacity=".2"/>
    <path fill="#1D4CD7" d="M0 196.363l52.744 31.921L0 260.205v-63.842zM105.489 196.363l-52.745 31.921 52.745 31.922v-63.843z"/>
    <path fill="#6DD230" d="M112.177 240.649c5.525-5.525 5.525-14.483 0-20.008-5.525-5.525-14.483-5.525-20.008 0-5.525 5.525-5.525 14.483 0 20.008 5.525 5.525 14.483 5.525 20.008 0z"/>
    <path fill="#fff" d="M101.667 221.44l8.536 10.843h-4.96v7.498h-7.152v-7.383h-4.96l8.536-10.958z"/>
    <path fill="#CCC" d="M257.282 158.343h-62.084v1.01h62.084v-1.01zM257.282 162.323h-62.084v1.01h62.084v-1.01zM257.282 166.142h-62.084v1.009h62.084v-1.009zM257.655 169.932h-62.457v1.01h62.457v-1.01z"/>
    <path fill="#1D4CD7" d="M199.984 150.758h-4.786v5.072h4.786v-5.072z" opacity=".8"/>
    <path fill="#CCC" d="M257.282 184.29h-62.084v1.01h62.084v-1.01zM257.282 188.27h-62.084v1.009h62.084v-1.009zM257.282 192.088h-62.084v1.01h62.084v-1.01zM257.655 195.879h-62.457v1.01h62.457v-1.01z"/>
    <path fill="#1D4CD7" d="M199.984 176.705h-4.786v5.072h4.786v-5.072z" opacity=".8"/>
    <path fill="#C7D4E2" d="M98.67 76.967H6.256c-2.241 0-4.058 1.817-4.058 4.058v32.679c0 2.242 1.817 4.058 4.058 4.058H98.67c2.241 0 4.058-1.816 4.058-4.058V81.025c0-2.24-1.817-4.058-4.058-4.058z"/>
    <path fill="#fff" d="M97.172 78.714H4.758C2.517 78.714.7 80.531.7 82.772v30.932c0 2.242 1.817 4.058 4.058 4.058h92.414c2.241 0 4.058-1.816 4.058-4.058V82.772c0-2.241-1.817-4.058-4.058-4.058z"/>
    <path fill="#949494" d="M31.572 109.503c-1.659-4.197-5.105-8.396-12.255-8.401-7.167-.005-10.613 4.193-12.267 8.392l24.522.009zM25.168 93.459c0 1.157-.343 2.287-.986 3.25-.642.96-1.556 1.71-2.624 2.153-1.069.443-2.245.559-3.38.333-1.134-.226-2.176-.783-2.994-1.6-.818-.819-1.375-1.86-1.6-2.995-.226-1.135-.11-2.31.332-3.38.443-1.068 1.193-1.981 2.154-2.624.962-.642 2.093-.985 3.25-.985 1.55 0 3.038.616 4.135 1.712 1.097 1.097 1.713 2.585 1.713 4.136zM96.861 92.392H34.778v1.01h62.083v-1.01zM96.861 96.37H34.778v1.01H96.86v-1.01zM96.861 100.189H34.778v1.01H96.86v-1.01zM67.472 103.98H34.778v1.01h32.694v-1.01z"/>
    <path fill="#949494" d="M96.861 92.392H34.778v1.01h62.083v-1.01zM96.861 96.37H34.778v1.01H96.86v-1.01zM96.861 100.189H34.778v1.01H96.86v-1.01zM67.472 103.98H34.778v1.01h32.694v-1.01z"/>
    <path fill="#6F95D4" d="M185.813 120.784l2.222 2.304c1.694-1.832 3.76-3.279 6.06-4.245 2.3-.966 4.781-1.428 7.274-1.355 4.892.134 9.546 2.138 13.004 5.6l2.305-2.304s-14.321-14.486-30.865 0z"/>
    <path fill="#6F95D4" d="M189.682 124.735l2.469 2.469s7.243-8.231 18.19 0l2.222-2.469s-10.206-10.289-22.881 0z"/>
    <path fill="#6F95D4" d="M196.184 131.319s4.938-5.021 9.876 0l2.47-2.634c-2.047-1.769-4.662-2.743-7.367-2.743s-5.32.974-7.366 2.743l2.387 2.634zM203.921 134.693c0 .546-.162 1.079-.465 1.533-.304.454-.734.808-1.239 1.016-.504.209-1.059.264-1.594.157-.535-.106-1.027-.369-1.413-.755-.386-.386-.649-.877-.755-1.413-.107-.535-.052-1.09.157-1.594s.562-.935 1.016-1.238c.454-.304.988-.465 1.533-.465.732 0 1.434.29 1.952.808.517.517.808 1.219.808 1.951z"/>
    <path fill="#949494" d="M213.085 212.438h-62.083v1.009h62.083v-1.009zM213.085 216.418h-62.083v1.01h62.083v-1.01zM213.085 220.237h-62.083v1.009h62.083v-1.009zM213.459 224.027h-62.457v1.009h62.457v-1.009z"/>
    <path stroke="#E94552" stroke-miterlimit="10" stroke-width="2.253" d="M136.595 227.929c5.105 0 9.244-4.139 9.244-9.244 0-5.106-4.139-9.244-9.244-9.244-5.106 0-9.244 4.138-9.244 9.244 0 5.105 4.138 9.244 9.244 9.244zM143.113 212.22l-13.035 13.035"/>
    <path stroke="#407CCA" stroke-miterlimit="10" stroke-width=".5" d="M212.599 205.309H126.17c-3.168 0-5.736 2.568-5.736 5.735v15.281c0 3.168 2.568 5.736 5.736 5.736h86.429c3.168 0 5.736-2.568 5.736-5.736v-15.281c0-3.167-2.568-5.735-5.736-5.735z"/>
    <path fill="#FE4D97" d="M106.798 123.344c3.815-4.222 3.486-10.737-.737-14.552-4.222-3.816-10.737-3.486-14.552.736-3.816 4.222-3.486 10.738.736 14.553 4.222 3.815 10.738 3.486 14.553-.737z" opacity=".9"/>
    <path fill="#fff" d="M99.341 121.088h-.17c-.324.001-.636-.119-.875-.336-.24-.217-.39-.515-.422-.837l-.931-9.366c-.018-.181.002-.364.059-.537.057-.173.15-.332.272-.466.122-.135.27-.243.437-.316.166-.074.346-.112.528-.112h1.827c.18 0 .357.037.521.109.165.072.312.177.434.309s.215.287.274.456c.059.17.082.35.068.528l-.721 9.367c-.026.328-.174.633-.415.856-.241.223-.557.346-.886.345zM100.572 123.171c0 .281-.083.555-.239.789-.156.233-.377.415-.637.522-.259.107-.544.135-.82.081-.274-.055-.527-.19-.726-.389-.198-.198-.333-.451-.388-.726-.055-.275-.026-.56.08-.82.108-.259.29-.48.523-.636.234-.156.508-.239.788-.239.377 0 .738.149 1.004.415s.415.627.415 1.003z"/>
    <path fill="#3B5CAD" d="M223.773 247.441c14.026 1.191 28.354 1.589 41.96-.595l-19.698 11.553-22.262-10.958z"/>
    <path fill="#F7C5B4" d="M262.402 237.055c1.528-.873 4.695-2.604 6.283-3.365 2.659 9.158 1.615 11.496-1.557 11.863-1.033.159-2.078.219-3.123.18-2.504-.074-4.974-.597-7.294-1.542.155-.835.121-2.565.274-3.4 2.072-.338 4.42-.83 6.493-1.167l-1.076-2.569zM229.121 237.055c-1.528-.873-4.695-2.604-6.283-3.365-2.658 9.158-1.615 11.496 1.557 11.863 1.21.226 2.443.307 3.673.243 2.516-.411 4.421-.445 6.743-1.491-.153-.835-.119-2.678-.272-3.513-2.073-.338-4.42-.83-6.493-1.167l1.075-2.57z"/>
    <path fill="#1C1C21" d="M232.436 249.766c-.007-3.702-1.114-11.038-1.411-16.047l-1.675 3.529-6.697-3.561c.662-2.294 2.485-5.219 3.815-7.379 2.759-4.481 6.28-6.808 11.662-8.353 2.391-.752 4.879-1.15 7.385-1.182h.369c2.632.048 5.251.387 7.808 1.011 5.133 1.167 9.285 5.002 12.047 9.483 1.286 1.973 2.396 4.056 3.316 6.224l-7.008 3.753-1.675-3.529c-.372 5.403-1.33 10.885-1.749 16.047l-26.187.004z"/>
    <path fill="#F7C5B4" d="M242.887 208.681c-.329 2.325-.797 4.629-1.401 6.898-.428.812-2.161 1.847-2.855 2.235 0 0 .17 2.75 7.442 2.822 7.156.07 7.616-2.851 7.616-2.851-.695-.388-2.694-1.011-3.026-2.206-.152-.551-1.102-5.142-1.298-6.69l-6.478-.208z"/>
    <path fill="#F7C5B4" d="M254.038 196.166c.605 3.282-.257 9.887-.961 12.499-.217 1.082-.651 2.108-1.277 3.017-1.034 1.436-2.568 2.431-4.3 2.789-1.732.359-3.535.054-5.053-.853-1.164-.744-2.077-1.822-2.62-3.092-1.368-3.287-1.923-6.856-1.618-10.403 0 0-.392-9.214 9.031-9.214 0-.001 5.786-.223 6.798 5.257z"/>
    <path fill="#F7C5B4" d="M238.631 205.2c-.119.133-.285.214-.463.226-.177.012-.353-.047-.488-.163-.261-.246-.428-.576-.47-.933-.068-.342-.095-.691-.082-1.04-.008-.251.066-.499.213-.703.082-.096.189-.165.309-.2.121-.035.249-.034.368.002.12.037.227.107.307.203.081.097.131.214.146.339l.16 2.269zM253.677 202.927c.027-.119.082-.231.161-.325.078-.095.178-.168.292-.216.12-.034.247-.034.367.001.119.035.227.103.31.196.147.205.222.452.212.704.014.348-.013.697-.081 1.04-.043.356-.21.687-.471.933-.136.116-.311.174-.489.162-.177-.011-.343-.093-.462-.225-.112-.76-.057-1.534.161-2.27z"/>
    <path stroke="#DA806C" stroke-linecap="round" stroke-linejoin="round" stroke-width=".392" d="M245.825 205.48c-.167.795-.281 1.601-.34 2.412-.007.097.017.194.068.278.117.162.579.212.812.243"/>
    <path fill="#3C3C3B" d="M247.288 204.728c-.088-.257-.1-.534-.034-.798.066-.263.206-.502.404-.688l.106.133.325-.295.143.106c.8-.55 1.752-.838 2.723-.823.206-.014.413.013.608.082.196.068.375.175.528.315-.088.081-.201.131-.32.141-1.617.123-3.148.782-4.349 1.871 0 0-.103.051-.134-.044zM239.21 193.285c-.598.98-2.863 5.382-1.426 9.228.045.164.145.308.285.405.296.167.643-.1.867-.356.828-.917 1.458-1.994 1.851-3.165.282-.868.378-1.786.282-2.694.265.966.754 1.855 1.426 2.597.225.283.492.53.792.731.115.063.25.085.379.06.13-.025.247-.094.332-.196.084-.161.109-.347.071-.526-.062-.535-.209-1.058-.435-1.547 1.108 1.195 2.47 2.127 3.986 2.727.466.143 1.075.173 1.333-.24.118-.231.147-.498.081-.75-.11-.619-.385-1.196-.797-1.671.793 1.044 1.822 1.886 3.002 2.457.604.33 1.287.484 1.973.444.679-.081 1.435-.406 1.504-1.085.223-2.108-.218-4.233-1.259-6.079-3.458-5.209-7.903-2.885-8.834-3.003-1.062-.115-2.133.074-3.091.545-.958.471-1.762 1.204-2.319 2.115"/>
    <path fill="#3C3C3B" d="M252.889 198.111c-.197 1.408.056 2.842.724 4.097.081.146.182.305.346.325.071.004.141-.012.203-.045.062-.034.113-.085.148-.147.067-.124.11-.259.126-.4.258-1.429.504-2.957-.081-4.287-.037-.101-.097-.193-.175-.267-.099-.075-.221-.114-.346-.112-.255.006-.499.11-.678.292-.179.182-.281.427-.283.682"/>
    <path fill="#F7C5B4" d="M249.699 213.591s-2.975 2.226-7.252.025c0 0 3.774 4.15 7.252-.025z"/>
    <path fill="#3C3C3B" d="M244.535 204.728c.088-.257.099-.534.034-.798-.066-.263-.206-.502-.404-.688l-.107.133-.324-.295-.143.106c-.8-.55-1.751-.838-2.722-.823-.206-.014-.414.014-.609.082s-.375.175-.527.314c.087.082.2.132.319.142 1.618.123 3.148.782 4.35 1.871 0 0 .101.051.133-.044z"/>
    <path stroke="#DA806C" stroke-linecap="round" stroke-linejoin="round" stroke-width=".453" d="M247.488 209.146c-.242.311-.555.561-.913.727-.358.167-.75.246-1.144.231"/>
    <path fill="#3C3C3B" d="M250.541 206.224c0 .406-.244.731-.546.731-.301 0-.546-.325-.546-.731 0-.406.244-.726.546-.726.303 0 .546.325.546.726zM242.169 206.221c0 .406-.243.73-.546.73-.303 0-.546-.324-.546-.73 0-.406.243-.726.546-.726.303 0 .546.325.546.726z"/>
    <path fill="#E94552" d="M258.5 230.722h-26.03c-1.435 0-2.597 1.163-2.597 2.597v16.706c0 1.435 1.162 2.597 2.597 2.597h26.03c1.434 0 2.597-1.162 2.597-2.597v-16.706c0-1.434-1.163-2.597-2.597-2.597z"/>
    <path fill="#1D4CD7" d="M236.863 262.836c11.565-.324 23.889-1 34.736-5.031 1.755-.567 3.394-1.445 4.837-2.593.718-.58 1.299-1.312 1.702-2.143.402-.831.616-1.74.627-2.663-.095-2.385-2.029-4.405-4.274-5.226-2.296-.696-4.736-.775-7.072-.227-10.638 1.91-20.722 8.723-31.15 12.305l.594 5.578z"/>
    <path fill="#003A70" d="M236.316 257.703c-2.465-.178-4.829-.521-7.297-.514-1.74-.072-3.481.135-5.155.613-.748.228-1.435.62-2.013 1.145-.277.253-.5.56-.653.902-.154.343-.236.713-.24 1.088.058.531.249 1.038.555 1.475.306.437.718.79 1.197 1.025.996.496 2.082.782 3.193.841 3.716.341 7.461-.152 10.962-1.442l-.549-5.133z"/>
    <path stroke="#003A70" stroke-miterlimit="10" stroke-width=".582" d="M261.42 246.479c-8.097 2.785-16.384 7.918-24.517 10.559"/>
    <path fill="#1D4CD7" d="M251.784 262.093c-11.566-.292-24.078-.922-34.934-4.925-1.757-.561-3.398-1.434-4.846-2.577-.719-.578-1.302-1.307-1.707-2.135-.406-.829-.623-1.736-.638-2.659.088-2.386 2.019-4.412 4.258-5.239 2.295-.703 4.735-.788 7.073-.247 10.642 1.878 20.592 8.846 31.032 12.398l-.238 5.384z"/>
    <path stroke="#003A70" stroke-miterlimit="10" stroke-width=".582" d="M228.068 246.249c8.058 2.897 15.858 7.705 23.954 10.459"/>
    <path fill="#003A70" d="M251.784 262.093c3.44 1.281 7.126 1.766 10.78 1.418 1.11-.062 2.196-.351 3.19-.85.479-.237.89-.59 1.195-1.028.305-.438.494-.946.55-1.477-.006-.376-.089-.746-.244-1.088-.155-.342-.378-.648-.657-.9-.58-.523-1.268-.911-2.016-1.136-1.676-.474-3.417-.675-5.157-.598-2.469 0-4.936.093-7.403.277l-.238 5.382z"/>
    <path stroke="#DA806C" stroke-miterlimit="10" stroke-width=".25" d="M225.256 240.118c.881-.396 1.85-.558 2.812-.47M266.267 240.118c-.881-.396-1.849-.558-2.811-.47"/>
</svg>
